#!OML:ASF E:/inclinewalkrobotboard/Project1/Captureday1/Session1/subject1.ASF
:FULLY-SPECIFIED
:DEGREES
1
root 0 0 0 1.108528912461124 -3.7412090212869744 1.8024323348128126
lowerback 11.9927486475212 0.8617283812632957 -0.0772099372542974
upperback -4.1847933534423145 1.0905539206545898 -0.5396672012839852
thorax -11.29839562658553 0.5001870842338096 -0.7743780466380219
lowerneck -5.925615084387312 1.4719122542647747 4.518880153637722
upperneck 18.049593729794676 2.9180959994784823 -8.262820181590829
head 6.619214079104106 1.0628828770294456 -3.192733379033024
rclavicle -1.1835335391348281E-15 4.408949059131384E-16
rhumerus 19.650739700582278 14.055599810488832 -47.80055486097251
rradius 72.07390997294895
rwrist 27.217385776021963
rhand -34.86137972768961 -57.49905507934024
rfingers 7.125020000000042
rthumb -8.003189322424493 -87.2774385465063
lclavicle 1.1624457197869752E-15 -2.6635651302868236E-15
lhumerus 20.595018337452572 -12.323805009458251 45.61173831120355
lradius 69.53398489294372
lwrist -22.199577700936995
lhand -44.74419151571533 -70.08247822152002
lfingers 7.125020000000015
lthumb -17.55289308498003 -40.97519871393294
rfemur -25.189913908115145 -2.1626241415257885 16.893324246826978
rtibia 54.202496933836535
rfoot -28.21629760999957 -16.760154849782584
rtoes -17.855657944843188
lfemur -27.432831947364797 2.4860373832300704 -18.26550376174474
ltibia 53.66507425479644
lfoot -31.872651504364157 -3.254974964734369
ltoes -19.571894869731786
2
root 0 0 0 1.1082280193494043 -3.7403355707794135 1.8027801007894564
lowerback 11.994654527766073 0.8619422809237405 -0.07708311036185467
upperback -4.183199318107402 1.0909043709345627 -0.5396733195305561
thorax -11.297737403855475 0.5003359654583587 -0.7745581604341794
lowerneck -5.923396888665895 1.4706687390067057 4.5200421262037604
upperneck 18.043476452848164 2.9162439019389366 -8.265293725932413
head 6.616881912843042 1.0620664553114985 -3.1938275274397943
rclavicle -1.1982067462277188E-15 4.138507372674343E-16
rhumerus 19.645700467516683 14.051445175066359 -47.80584752818317
rradius 72.07321154237847
rwrist 27.21800353641379
rhand -34.876759820988745 -57.52068052744141
rfingers 7.125020000000043
rthumb -8.018357564700729 -87.2996904388978
lclavicle 1.1326318370695775E-15 -2.6933691265112697E-15
lhumerus 20.599272834750263 -12.31755479620807 45.61470046804268
lradius 69.53628792351118
lwrist -22.202833974600154
lhand -44.75295688694915 -70.13055777293343
lfingers 7.125020000000015
lthumb -17.561191189938775 -41.02363466810881
rfemur -25.191153305918863 -2.162528303833244 16.896097401399082
rtibia 54.19960490186603
rfoot -28.22568050499825 -16.764202234141717
rtoes -17.854069893237437
lfemur -27.440361264159073 2.4841433313581245 -18.26529846954682
ltibia 53.66297073836346
lfoot -31.883679679408253 -3.2526979891053895
ltoes -19.567387448005793
3
root 0 0 0 1.1079092847565108 -3.740431887594966 1.8027541005677992
lowerback 11.995058276434747 0.8619718866956656 -0.07691140720785891
upperback -4.182678395072235 1.0909864421855466 -0.5395917088991804
thorax -11.297389786645232 0.5003671725348683 -0.7745905410238103
lowerneck -5.922148215878011 1.4702571837226808 4.520529453338037
upperneck 18.04149620530837 2.915680910682584 -8.266344988181102
head 6.616035048204667 1.0618150873174625 -3.1942819485593468
rclavicle -1.215961068918547E-15 3.9704942394649087E-16
rhumerus 19.643292742668557 14.049384028250223 -47.80745312401611
rradius 72.07146837959438
rwrist 27.21793971461728
rhand -34.88001504297021 -57.52413558586636
rfingers 7.125020000000043
rthumb -8.02158577726475 -87.30347278991401
lclavicle 1.102955215902476E-15 -2.7178151775706702E-15
lhumerus 20.59939084145317 -12.315536877849231 45.61511858923479
lradius 69.53565480356806
lwrist -22.2039120546682
lhand -44.754892129295904 -70.14058762486165
lfingers 7.125020000000015
lthumb -17.562863640908503 -41.03383648269358
rfemur -25.191424842683208 -2.1624332797562253 16.896358195347137
rtibia 54.19842380770793
rfoot -28.226874292696788 -16.76450638883469
rtoes -17.85462801972763
lfemur -27.441766880531084 2.4831249241347337 -18.265095383118013
ltibia 53.66180333581309
lfoot -31.88569725236343 -3.2527583763800587
ltoes -19.565888404360106
4
root 0 0 0 1.10789199713513 -3.740318724251225 1.8027896901417888
lowerback 11.99523259873941 0.8619937161699881 -0.07689783570800729
upperback -4.182537548986607 1.0910208845753604 -0.5395986521175544
thorax -11.29733542378193 0.500381909509147 -0.7746154608260689
lowerneck -5.921967349777045 1.470141786799534 4.520635070822309
upperneck 18.040946634643745 2.9155065390938746 -8.266560973037688
head 6.615829314855041 1.061738260500113 -3.194379583585344
rclavicle -1.2321627131697875E-15 4.014461859745312E-16
rhumerus 19.642130352764426 14.048134325301373 -47.807846556332166
rradius 72.07107463987052
rwrist 27.218607050035807
rhand -34.88237499131672 -57.527861923375106
rfingers 7.125020000000043
rthumb -8.023894321459998 -87.30734540313085
lclavicle 1.0766489270129256E-15 -2.7124664681291784E-15
lhumerus 20.599715961190313 -12.314312178120154 45.61647404046848
lradius 69.5353004407779
lwrist -22.203844216607514
lhand -44.756348815747074 -70.14766036621248
lfingers 7.125020000000015
lthumb -17.564194411966717 -41.04104457862353
rfemur -25.19116780068616 -2.1624241501400667 16.896487620432104
rtibia 54.19814817541737
rfoot -28.22702440638737 -16.764579427123564
rtoes -17.85480497345185
lfemur -27.442451546259743 2.482591303206072 -18.264924154605318
ltibia 53.661578674553894
lfoot -31.885982174054572 -3.25274489259815
ltoes -19.5648883294589
5
root 0 0 0 1.1078756369625493 -3.740419631027749 1.802763811330744
lowerback 11.995051583870215 0.8619676641249315 -0.07691443281694893
upperback -4.182656383170093 1.090980248588154 -0.5395906193027653
thorax -11.297363283672414 0.5003637981270181 -0.7745884446731053
lowerneck -5.92202897716597 1.4702413727578794 4.520574962831957
upperneck 18.041392450144947 2.9156605606488473 -8.26642222834511
head 6.615981087471651 1.0618064656153672 -3.1943156784598425
rclavicle -1.2495318051096888E-15 4.1794682972720864E-16
rhumerus 19.642285078849966 14.047609122982166 -47.80777622763884
rradius 72.07180626202731
rwrist 27.219634288225816
rhand -34.8846176364826 -57.53217617497981
rfingers 7.125020000000043
rthumb -8.026025733922062 -87.31177404688775
lclavicle 1.0388793416896306E-15 -2.691799820092892E-15
lhumerus 20.599804881684605 -12.312417461688277 45.61944471202048
lradius 69.53467779282269
lwrist -22.203123263571577
lhand -44.75881889311702 -70.16052434326251
lfingers 7.125020000000015
lthumb -17.566398156050674 -41.05444896511875
rfemur -25.190032075537907 -2.1624657896794175 16.895623056888493
rtibia 54.196574814172095
rfoot -28.225375063706217 -16.763842953180347
rtoes -17.856337825133746
lfemur -27.4410806231104 2.4817659118250788 -18.26401578724359
ltibia 53.6590341170302
lfoot -31.882805413718625 -3.2525310411613892
ltoes -19.56760535785466
6
root 0 0 0 1.1080032750796125 -3.7401800519827013 1.80283156275975
lowerback 11.995261111671867 0.8620067354055376 -0.07694179657762473
upperback -4.182581221460947 1.0910289570014093 -0.5396346394737969
thorax -11.297401408091886 0.500387075586803 -0.7746309980993006
lowerneck -5.922244177507832 1.4701694223565567 4.520576304050192
upperneck 18.041099321455302 2.915528657552481 -8.26641488769249
head 6.615927187968022 1.0617481659181718 -3.194321803445842
rclavicle -1.2278738740740247E-15 3.9665916475635723E-16
rhumerus 19.641673709445186 14.047664523995369 -47.808021066845406
rradius 72.07075670438746
rwrist 27.21870548278178
rhand -34.88315735514106 -57.52872988799126
rfingers 7.125020000000043
rthumb -8.024674939084607 -87.30824586197382
lclavicle 1.0825076290315158E-15 -2.718859933053297E-15
lhumerus 20.59919627386126 -12.313294505051765 45.617102574447834
lradius 69.53480613738533
lwrist -22.203914403364518
lhand -44.75680118295737 -70.15108211130917
lfingers 7.125020000000015
lthumb -17.564629374729883 -41.04445852482311
rfemur -25.190911019716143 -2.162425730568642 16.8964952055761
rtibia 54.19823171101783
rfoot -28.226736086231284 -16.764417965570143
rtoes -17.855133864866403
lfemur -27.44267493041179 2.482297409515831 -18.264873039113386
ltibia 53.661436336121724
lfoot -31.885720066413796 -3.2530406857535494
ltoes -19.564167143141127
7
root 0 0 0 1.107976537321104 -3.7401850675906716 1.8028305128130373
lowerback 11.99529342514432 0.8620086089018011 -0.0769312973792973
upperback -4.182542694989214 1.0910342994072035 -0.5396285253111375
thorax -11.29737752980948 0.5003890444897403 -0.7746320976611668
lowerneck -5.922156167436191 1.4701411532192326 4.520609793707472
upperneck 18.04095597097679 2.9154897528774937 -8.266488292532182
head 6.615866022352236 1.0617309357769216 -3.1943531234425753
rclavicle -1.2336808172704508E-15 3.991341259551579E-16
rhumerus 19.641396887823262 14.047419343145933 -47.80814247409401
rradius 72.07058308855056
rwrist 27.218707307890188
rhand -34.88325070644194 -57.52880331809814
rfingers 7.125020000000043
rthumb -8.024755555669408 -87.30835196480083
lclavicle 1.0738727740706305E-15 -2.715662317979882E-15
lhumerus 20.599430953138544 -12.31361400480928 45.61699796573341
lradius 69.5348715537401
lwrist -22.203853532571134
lhand -44.7567612212033 -70.15013763913109
lfingers 7.125020000000015
lthumb -17.5645714563081 -41.04352402792578
rfemur -25.191174083671676 -2.1624488148977528 16.89647000655855
rtibia 54.19815043717874
rfoot -28.226832063399232 -16.764540146464583
rtoes -17.854861588859986
lfemur -27.44273493699811 2.4823526209683684 -18.264944333465586
ltibia 53.6616876815885
lfoot -31.885876100398562 -3.2529927033033945
ltoes -19.56374080890335
8
root 0 0 0 1.1079448030634405 -3.740199833105995 1.8028268962652731
lowerback 11.995318467160889 0.8620090044528408 -0.07691837897421278
upperback -4.1825051112666145 1.0910381289845053 -0.5396204170361447
thorax -11.29735026027793 0.5003902226928217 -0.7746320212216369
lowerneck -5.922050662477001 1.4701127276647985 4.520644335542721
upperneck 18.040814180272505 2.9154518313226347 -8.26656585332098
head 6.615802342005048 1.061714229845762 -3.1943860079170996
rclavicle -1.2349847689876847E-15 3.9920785438254725E-16
rhumerus 19.641390215320584 14.047418742917221 -47.8081599589744
rradius 72.07060336545668
rwrist 27.21873304230141
rhand -34.883338062634984 -57.52898460593309
rfingers 7.125020000000043
rthumb -8.024844241598544 -87.3085387469733
lclavicle 1.071785066155004E-15 -2.7156251831809463E-15
lhumerus 20.599503713474377 -12.313619420029985 45.61696624102738
lradius 69.53489980040229
lwrist -22.203875682572402
lhand -44.756799248683514 -70.15021966763166
lfingers 7.125020000000015
lthumb -17.564597128153675 -41.043603382199436
rfemur -25.1911535355551 -2.162443684453567 16.896486886385485
rtibia 54.198125465177746
rfoot -28.22691039714855 -16.76457988687288
rtoes -17.854861061706686
lfemur -27.442815411440026 2.4823300836505813 -18.264934240782665
ltibia 53.661656676007844
lfoot -31.885988245715396 -3.2529198508392776
ltoes -19.56376232694926
